0
SECTION
2
HEADER
9
$INSUNITS
70
4
9
$ACADVER
1
AC1014
9
$HANDSEED
5
FFFF
0
ENDSEC
0
SECTION
2
TABLES
0
TABLE
2
VPORT
5
8
100
AcDbSymbolTable
0
ENDTAB
0
TABLE
2
LTYPE
5
5
100
AcDbSymbolTable
0
LTYPE
5
14
100
AcDbSymbolTableRecord
100
AcDbLinetypeTableRecord
2
BYBLOCK
70
0
0
LTYPE
5
15
100
AcDbSymbolTableRecord
100
AcDbLinetypeTableRecord
2
BYLAYER
70
0
0
ENDTAB
0
TABLE
2
LAYER
5
2
100
AcDbSymbolTable
70
2
0
LAYER
5
50
100
AcDbSymbolTableRecord
100
AcDbLayerTableRecord
2
0
70
0
6
CONTINUOUS
0
ENDTAB
0
TABLE
2
STYLE
5
3
100
AcDbSymbolTable
70
1
0
STYLE
5
11
100
AcDbSymbolTableRecord
100
AcDbTextStyleTableRecord
2
STANDARD
70
0
0
ENDTAB
0
TABLE
2
VIEW
5
6
100
AcDbSymbolTable
70
0
0
ENDTAB
0
TABLE
2
UCS
5
7
100
AcDbSymbolTable
70
0
0
ENDTAB
0
TABLE
2
APPID
5
9
100
AcDbSymbolTable
70
2
0
APPID
5
12
100
AcDbSymbolTableRecord
100
AcDbRegAppTableRecord
2
ACAD
70
0
0
ENDTAB
0
TABLE
2
DIMSTYLE
5
A
100
AcDbSymbolTable
70
1
0
ENDTAB
0
TABLE
2
BLOCK_RECORD
5
1
100
AcDbSymbolTable
70
1
0
BLOCK_RECORD
5
1F
100
AcDbSymbolTableRecord
100
AcDbBlockTableRecord
2
*MODEL_SPACE
0
BLOCK_RECORD
5
1B
100
AcDbSymbolTableRecord
100
AcDbBlockTableRecord
2
*PAPER_SPACE
0
ENDTAB
0
ENDSEC
0
SECTION
2
BLOCKS
0
BLOCK
5
20
100
AcDbEntity
100
AcDbBlockBegin
2
*MODEL_SPACE
0
ENDBLK
5
21
100
AcDbEntity
100
AcDbBlockEnd
0
BLOCK
5
1C
100
AcDbEntity
100
AcDbBlockBegin
2
*PAPER_SPACE
0
ENDBLK
5
1D
100
AcDbEntity
100
AcDbBlockEnd
0
ENDSEC
0
SECTION
2
ENTITIES
0
LINE
5
100
100
AcDbEntity
8
0
100
AcDbLine
10
-5.000000074505806
20
75.000001341104507
30
0
11
5.0000000745058015
21
75.000001341104507
31
0
0
LWPOLYLINE
5
101
100
AcDbEntity
8
0
100
AcDbPolyline
90
8
70
1
43
0.0
10
-20.000000298023224
20
117.0000015348196
10
-2.0000002980232234
20
117.0000015348196
10
-1.0000000149011612
20
117.00000171363355
10
1.0000000149011612
20
117.00000171363355
10
1.9999997019767779
20
117.0000015348196
10
19.99999970197678
20
117.0000015348196
10
19.999999701976776
20
105.00000153481962
10
-20.000000298023224
20
105.00000153481962
0
LINE
5
102
100
AcDbEntity
8
0
100
AcDbLine
10
-20.000000298023224
20
115.00000153481962
30
0
11
-20.000000298023224
21
105.00000153481962
31
0
0
LINE
5
103
100
AcDbEntity
8
0
100
AcDbLine
10
-10
20
90.000001341104507
30
0
11
-10
21
75.00000111758709
31
0
0
LINE
5
104
100
AcDbEntity
8
0
100
AcDbLine
10
-10
20
75.00000111758709
30
0
11
-5.000000074505806
21
75.000001341104507
31
0
0
LINE
5
105
100
AcDbEntity
8
0
100
AcDbLine
10
5.0000000745058015
20
75.000001341104507
30
0
11
10
21
75.000001341104507
31
0
0
LINE
5
106
100
AcDbEntity
8
0
100
AcDbLine
10
10
20
75.000001341104507
30
0
11
10
21
100.00000149011612
31
0
0
LINE
5
107
100
AcDbEntity
8
0
100
AcDbLine
10
-10
20
90.000001341104507
30
0
11
-10
21
100.00000149011612
31
0
0
LINE
5
108
100
AcDbEntity
8
0
100
AcDbLine
10
5
20
78.500001192092896
30
0
11
-5
21
78.500001192092896
31
0
0
LINE
5
109
100
AcDbEntity
8
0
100
AcDbLine
10
-5
20
78.500001192092896
30
0
11
-5
21
81.500001192092896
31
0
0
LINE
5
110
100
AcDbEntity
8
0
100
AcDbLine
10
-5
20
81.500001192092896
30
0
11
5
21
81.500001192092896
31
0
0
LINE
5
111
100
AcDbEntity
8
0
100
AcDbLine
10
5
20
81.500001192092896
30
0
11
5
21
78.500001192092896
31
0
0
LINE
5
112
100
AcDbEntity
8
0
100
AcDbLine
10
5
20
78.500001192092896
30
0
11
-5
21
81.500001192092896
31
0
0
LINE
5
113
100
AcDbEntity
8
0
100
AcDbLine
10
-5
20
78.500001192092896
30
0
11
5
21
81.500001192092896
31
0
0
LINE
5
114
100
AcDbEntity
8
0
100
AcDbLine
10
-25
20
100.00000149011612
30
0
11
-25
21
115.00000171363354
31
0
0
LINE
5
115
100
AcDbEntity
8
0
100
AcDbLine
10
-25.00000037252903
20
116.0000017285347
30
0
11
-25
21
115.00000171363354
31
0
0
LINE
5
116
100
AcDbEntity
8
0
100
AcDbLine
10
-25.00000037252903
20
116.99999217689061
30
0
11
-25.00000037252903
21
116.0000017285347
31
0
0
LINE
5
117
100
AcDbEntity
8
0
100
AcDbLine
10
-1.0000000149011612
20
105.00000153481962
30
0
11
1.0000000149011612
21
105.00000153481962
31
0
0
LWPOLYLINE
5
118
100
AcDbEntity
8
0
100
AcDbPolyline
90
29
70
1
43
0.0
10
-60.000000894069672
20
115.00000171363354
10
-110.00000089406967
20
115.00000171363354
10
-110.00000089406967
20
105.00000171363354
10
-107.00000089406967
20
105.00000171363354
10
-107.00000089406967
20
100.00000171363354
10
-110.00000089406967
20
100.00000171363354
10
-110.00000089406967
20
85.000001713633537
10
-107.00000089406967
20
85.000001713633537
10
-107.00000089406967
20
80.000001713633537
10
-110.00000089406967
20
80.000001713633537
10
-110.00000089406967
20
70.000001713633537
10
-106.50000089406967
20
70.000001713633537
10
-106.50000089406967
20
67.000001713633537
10
-102.50000089406967
20
67.000001713633537
10
-102.50000089406967
20
70.000001713633537
10
-82.500000894069672
20
70.000001713633537
10
-67.500000894069672
20
70.000001713633537
10
-67.500000894069672
20
67.000001713633537
10
-63.500000894069672
20
67.000001713633537
10
-63.500000894069672
20
70.000001713633537
10
-60.000000894069672
20
70.000001713633537
10
-60.000000894069672
20
80.000001713633537
10
-63.000000894069672
20
80.000001713633537
10
-63.000000894069672
20
85.000001713633537
10
-60.000000894069672
20
85.000001713633537
10
-60.000000894069672
20
100.00000171363354
10
-63.000000894069672
20
100.00000171363354
10
-63.000000894069672
20
105.00000171363354
10
-60.000000894069672
20
105.00000171363354
0
LINE
5
119
100
AcDbEntity
8
0
100
AcDbLine
10
25
20
100.00000149011612
30
0
11
21.50000000000006
21
100.00000083819032
31
0
0
LINE
5
120
100
AcDbEntity
8
0
100
AcDbLine
10
17.499999441206519
20
100.00000149011612
30
0
11
10
21
100.00000149011612
31
0
0
LINE
5
121
100
AcDbEntity
8
0
100
AcDbLine
10
-25
20
100.00000149011612
30
0
11
-21.5
21
100.00000149011612
31
0
0
LINE
5
122
100
AcDbEntity
8
0
100
AcDbLine
10
-17.5
20
100.00000149011612
30
0
11
-10
21
100.00000149011612
31
0
0
LINE
5
123
100
AcDbEntity
8
0
100
AcDbLine
10
25
20
100.00000149011612
30
0
11
24.999996274709702
21
120.00000149011576
31
0
0
LINE
5
124
100
AcDbEntity
8
0
100
AcDbLine
10
24.999996274709702
20
120.00000149011576
30
0
11
-25.00000037252903
21
120.00000149011576
31
0
0
LINE
5
125
100
AcDbEntity
8
0
100
AcDbLine
10
-25.00000037252903
20
120.00000149011576
30
0
11
-25.00000037252903
21
116.99999217689061
31
0
0
LINE
5
126
100
AcDbEntity
8
0
100
AcDbLine
10
-21.5
20
100.00000149011612
30
0
11
-21.5
21
103.00000149011612
31
0
0
LINE
5
127
100
AcDbEntity
8
0
100
AcDbLine
10
-21.5
20
103.00000149011612
30
0
11
-17.5
21
103.00000149011612
31
0
0
LINE
5
128
100
AcDbEntity
8
0
100
AcDbLine
10
-17.5
20
103.00000149011612
30
0
11
-17.5
21
100.00000149011612
31
0
0
LINE
5
129
100
AcDbEntity
8
0
100
AcDbLine
10
17.499999441206519
20
100.00000149011612
30
0
11
17.499999441206519
21
103.00000149011612
31
0
0
LINE
5
130
100
AcDbEntity
8
0
100
AcDbLine
10
17.499999441206519
20
103.00000149011612
30
0
11
21.499999441206448
21
103.00000223517418
31
0
0
LINE
5
131
100
AcDbEntity
8
0
100
AcDbLine
10
21.499999441206448
20
103.00000223517418
30
0
11
21.499999999999993
21
100.00000223517424
31
0
0
LWPOLYLINE
5
132
100
AcDbEntity
8
0
100
AcDbPolyline
90
4
70
1
43
0.0
10
-95.000001564621925
20
50.00000074505806
10
-105.00000156462193
20
50.00000074505806
10
-105.00000156462193
20
20.00000074505806
10
-95.000001564621925
20
20.00000074505806
0
ENDSEC
0
SECTION
2
OBJECTS
0
DICTIONARY
5
C
100
AcDbDictionary
3
ACAD_GROUP
350
D
3
ACAD_MLINESTYLE
350
17
0
DICTIONARY
5
D
100
AcDbDictionary
0
DICTIONARY
5
1A
330
C
100
AcDbDictionary
0
DICTIONARY
5
17
100
AcDbDictionary
0
ENDSEC
0
EOF
